<svg width="512" height="512" viewBox="0 0 512 512" fill="none" xmlns="http://www.w3.org/2000/svg">
  <!-- Background -->
  <rect width="512" height="512" fill="#00004D"/>
  
  <!-- Glow effect definition -->
  <defs>
    <filter id="glow">
      <feGaussianBlur stdDeviation="3" result="coloredBlur"/>
      <feMerge>
        <feMergeNode in="coloredBlur"/>
        <feMergeNode in="SourceGraphic"/>
      </feMerge>
    </filter>
  </defs>
  
  <!-- Main frame outline -->
  <g stroke="#00D9FF" stroke-width="4" fill="none">
    <!-- Left side angled frame -->
    <path d="M 80 100 L 95 115 L 95 397 L 80 412 L 60 412 L 60 100 Z" stroke-linecap="round" stroke-linejoin="round"/>
    
    <!-- Top left horizontal line -->
    <line x1="95" y1="115" x2="280" y2="115" stroke-linecap="round"/>
    
    <!-- Top right section with tab -->
    <path d="M 380 90 L 440 90 L 455 105 L 455 140" stroke-linecap="round" stroke-linejoin="round"/>
    
    <!-- Right side frame -->
    <path d="M 455 372 L 455 407 L 440 422 L 380 422" stroke-linecap="round" stroke-linejoin="round"/>
    
    <!-- Bottom left section -->
    <path d="M 280 397 L 95 397" stroke-linecap="round"/>
  </g>
  
  <!-- Inner cyan fill sections -->
  <g fill="#00D9FF" opacity="0.3">
    <!-- Top tab fill -->
    <path d="M 380 90 L 440 90 L 455 105 L 380 105 Z"/>
    
    <!-- Left corner fill -->
    <path d="M 80 100 L 95 115 L 80 115 Z"/>
  </g>
  
  <!-- Decorative dots (top right) -->
  <g fill="#00D9FF">
    <circle cx="400" cy="115" r="5"/>
    <circle cx="420" cy="115" r="5"/>
    <circle cx="440" cy="115" r="5"/>
  </g>
  
  <!-- Decorative dots (bottom left) -->
  <g fill="#00D9FF">
    <circle cx="120" cy="380" r="4"/>
    <circle cx="138" cy="380" r="4"/>
    <circle cx="156" cy="380" r="4"/>
    <circle cx="174" cy="380" r="4"/>
  </g>
  
  <!-- Main border rectangle with glow effect -->
  <rect x="100" y="220" width="312" height="72" fill="none" stroke="#00D9FF" stroke-width="5" rx="3"/>
  <rect x="100" y="220" width="312" height="72" fill="none" stroke="#00FFFF" stroke-width="2" rx="3" opacity="0.6"/>
  
  <!-- UNCLAIMED text with glow -->
  <text x="256" y="270" font-family="'Arial Black', 'Arial Bold', sans-serif" font-size="48" font-weight="900" fill="#00D9FF" text-anchor="middle" letter-spacing="6" filter="url(#glow)">
    UNCLAIMED
  </text>
</svg>
